<svg width="119" height="145" viewBox="0 0 119 145" fill="none" xmlns="http://www.w3.org/2000/svg">
<path d="M56.6193 0.122543C54.6999 0.361221 50.4286 1.39951 48.739 2.03201C45.1164 3.39252 43.8864 4.06082 39.8719 6.82956C36.6819 9.02545 31.7617 13.2382 29.6395 15.5773C26.8145 18.7041 24.2733 21.8428 22.8811 23.9313C22.5026 24.4922 21.4077 26.1272 20.4345 27.5712C17.0417 32.6432 15.8117 34.7437 13.0272 40.305C10.486 45.377 8.28278 50.831 5.2685 59.4355C4.34935 62.0491 3.07876 66.2261 2.91655 67.145C2.876 67.3837 2.51104 69.0545 2.09202 70.8685C1.41617 73.852 0.551089 78.4825 0.469987 79.5447C0.442953 79.7714 0.388885 80.4994 0.348335 81.1558C0.294267 81.8122 0.199648 83.1249 0.132064 84.0797C-0.151792 87.827 0.037445 93.2929 0.551089 96.7896C0.76736 98.2694 1.45672 101.42 1.8352 102.685C2.33532 104.332 4.43045 109.69 5.33608 111.66C6.16062 113.426 8.32333 117.209 9.5804 119.083C10.6482 120.658 12.9596 123.486 14.9196 125.611C16.6768 127.508 18.1907 128.905 20.1371 130.384C21.1509 131.16 22.5161 132.234 23.1649 132.759C25.0843 134.323 28.8691 136.674 31.7076 138.058C34.6273 139.478 39.2095 141.268 42.1021 142.104C44.9137 142.915 49.0499 143.775 51.2261 143.989C51.929 144.061 53.2671 144.204 54.1998 144.288C56.4301 144.514 61.8639 144.514 63.9996 144.288C69.4064 143.715 72.4882 143.19 75.5566 142.307C78.6114 141.423 83.9911 139.466 85.897 138.547C87.2352 137.903 94.0342 133.857 95.3589 132.926C96.1023 132.401 98.1434 130.683 99.9006 129.119C103.483 125.909 105.037 124.179 108.051 120.085C109.457 118.164 110.16 117.03 111.782 114.058C114.418 109.249 115.323 106.981 116.905 101.348C118.703 94.9636 119 92.8752 119 86.5262C119 80.7142 118.649 76.8714 117.662 72.3245C117.324 70.7491 117.027 69.2454 116.999 68.9829C116.986 68.7203 116.932 68.422 116.878 68.3265C116.837 68.231 116.635 67.4195 116.445 66.5364C115.648 62.9084 115.148 61.3211 113.174 55.9149C111.823 52.1915 109.552 46.5943 108.132 43.4437C106.875 40.6511 100.766 29.6239 99.2788 27.4519C96.9944 24.1342 92.8312 18.8234 90.3982 16.1621C88.1138 13.644 83.9776 9.84891 81.4635 7.9633C80.0442 6.88924 74.3941 3.48799 73.0559 2.89128C71.2447 2.09169 68.0411 1.07727 65.7838 0.599915C63.3372 0.0747986 58.8767 -0.163879 56.6193 0.122543Z" fill="#EAAB9F"/>
</svg>
